<svg width="18" height="18" viewBox="0 0 18 18" fill="none" xmlns="http://www.w3.org/2000/svg">
<path fill-rule="evenodd" clip-rule="evenodd" d="M9.5 1C5.35795 1 2 4.35795 2 8.5C2 12.642 5.35795 16 9.5 16C13.642 16 17 12.642 17 8.5C17 4.35795 13.642 1 9.5 1ZM12.7509 7.23182C12.8108 7.16339 12.8563 7.08369 12.8849 6.99739C12.9135 6.91109 12.9246 6.81994 12.9175 6.72931C12.9103 6.63867 12.8851 6.55038 12.8433 6.46963C12.8016 6.38888 12.7441 6.3173 12.6742 6.2591C12.6044 6.20089 12.5236 6.15725 12.4367 6.13072C12.3497 6.1042 12.2583 6.09534 12.1679 6.10466C12.0774 6.11397 11.9898 6.14128 11.9101 6.18498C11.8303 6.22867 11.7601 6.28787 11.7036 6.35909L8.77182 9.87659L7.25477 8.35886C7.12618 8.23467 6.95395 8.16594 6.77518 8.1675C6.59641 8.16905 6.4254 8.24075 6.29899 8.36717C6.17257 8.49358 6.10087 8.66459 6.09931 8.84336C6.09776 9.02213 6.16648 9.19436 6.29068 9.32295L8.33614 11.3684C8.40313 11.4354 8.48334 11.4876 8.57165 11.5219C8.65996 11.5561 8.75443 11.5716 8.84905 11.5673C8.94366 11.563 9.03635 11.539 9.12119 11.4969C9.20603 11.4548 9.28117 11.3955 9.34182 11.3227L12.7509 7.23182Z" fill="#6CE223"/>
</svg>
