<svg viewBox="0 0 88 88" fill="none" xmlns="http://www.w3.org/2000/svg">
<path fill-rule="evenodd" clip-rule="evenodd" d="M44.2989 0.379395C20.3671 0.379395 0.965576 19.7809 0.965576 43.7127C0.965576 67.6446 20.3671 87.0461 44.2989 87.0461C68.2307 87.0461 87.6322 67.6446 87.6322 43.7127C87.6322 19.7809 68.2307 0.379395 44.2989 0.379395ZM63.0819 36.3855C63.4278 35.9901 63.6911 35.5296 63.8564 35.031C64.0216 34.5324 64.0855 34.0057 64.0442 33.4821C64.003 32.9584 63.8574 32.4483 63.616 31.9817C63.3747 31.5152 63.0425 31.1016 62.639 30.7653C62.2354 30.429 61.7687 30.1768 61.2663 30.0236C60.7638 29.8703 60.2358 29.8191 59.7133 29.873C59.1908 29.9268 58.6843 30.0846 58.2237 30.337C57.763 30.5895 57.3575 30.9315 57.031 31.343L40.0916 51.6664L31.3265 42.8973C30.5835 42.1797 29.5884 41.7826 28.5555 41.7916C27.5226 41.8006 26.5346 42.2149 25.8042 42.9453C25.0738 43.6757 24.6595 44.6637 24.6505 45.6966C24.6415 46.7295 25.0386 47.7246 25.7562 48.4676L37.5744 60.2858C37.9614 60.6726 38.4249 60.9745 38.9351 61.1724C39.4453 61.3702 39.9912 61.4595 40.5378 61.4347C41.0845 61.4099 41.62 61.2714 42.1102 61.0281C42.6004 60.7849 43.0346 60.4422 43.385 60.0218L63.0819 36.3855Z" fill="#F1D900"/>
</svg>
