<svg viewBox="0 0 109 131" fill="none" xmlns="http://www.w3.org/2000/svg">
<g opacity="0.6">
<circle cx="64" cy="86" r="45" fill="white"/>
<path d="M73.627 85.7506C73.8047 85.8694 73.8047 86.1306 73.627 86.2494L60.2168 95.2143C60.0174 95.3475 59.75 95.2046 59.75 94.9649L59.75 77.0351C59.75 76.7954 60.0174 76.6525 60.2168 76.7857L73.627 85.7506Z" fill="black"/>
</g>
<path d="M10.8963 62.758L10.7277 62.6956C10.1562 62.4842 9.65695 62.2051 9.22992 61.8583C8.798 61.5097 8.45914 61.1122 8.21333 60.6658C7.96263 60.2177 7.81937 59.7343 7.78355 59.2157C7.74285 58.6953 7.8246 58.1591 8.02881 57.6071C8.23483 57.0502 8.52265 56.5875 8.89226 56.2189C9.2588 55.8436 9.68307 55.5674 10.1651 55.3903C10.644 55.2065 11.1609 55.1228 11.7157 55.1393C12.2656 55.1539 12.8263 55.267 13.3979 55.4784L13.5664 55.5408C14.1379 55.7522 14.6372 56.0313 15.0642 56.3781C15.4912 56.7249 15.8292 57.1248 16.0781 57.5779C16.3239 58.0242 16.4672 58.5076 16.5079 59.028C16.5455 59.5418 16.4613 60.0771 16.2553 60.6339C16.0493 61.1908 15.7639 61.6544 15.3991 62.0248C15.0295 62.3935 14.6053 62.6696 14.1263 62.8534C13.6443 63.0305 13.1283 63.1117 12.5784 63.0971C12.0285 63.0825 11.4678 62.9694 10.8963 62.758ZM11.2292 61.3401L11.3978 61.4025C11.7934 61.5488 12.1843 61.6407 12.5703 61.678C12.9515 61.7135 13.3107 61.6881 13.648 61.6019C13.9872 61.5108 14.2873 61.3525 14.5485 61.127C14.8047 60.8997 15.0024 60.598 15.1415 60.2219C15.2789 59.8506 15.3234 59.4978 15.2749 59.1633C15.2234 58.8222 15.0977 58.5091 14.8977 58.2241C14.6977 57.9391 14.4415 57.686 14.129 57.4649C13.8135 57.2371 13.4578 57.05 13.0622 56.9036L12.8937 56.8413C12.5029 56.6967 12.116 56.6091 11.733 56.5785C11.347 56.5412 10.9844 56.5681 10.6453 56.6592C10.3031 56.7436 10.0014 56.8985 9.74025 57.124C9.48093 57.3446 9.28169 57.643 9.14254 58.0191C9.00519 58.3904 8.96226 58.7466 9.01376 59.0877C9.06706 59.424 9.19525 59.7379 9.39831 60.0297C9.5983 60.3147 9.85698 60.5686 10.1743 60.7916C10.4868 61.0127 10.8385 61.1955 11.2292 61.3401Z" fill="white"/>
<path d="M10.4963 44.5845L11.1007 43.5623C11.54 43.8221 11.85 44.0961 12.0305 44.3844C12.2065 44.67 12.295 44.9704 12.2962 45.2858C12.2999 45.5966 12.2515 45.9189 12.1509 46.2527C12.053 46.5821 11.9462 46.9213 11.8305 47.2704C11.6832 47.7037 11.5989 48.1379 11.5776 48.573C11.5544 49.001 11.6295 49.4266 11.8028 49.8498C11.9788 50.2685 12.2847 50.6823 12.7205 51.0913C13.159 51.4958 13.7627 51.8922 14.5316 52.2803L15.1503 52.6461L14.5458 53.6683L13.9271 53.3024C13.0978 52.812 12.4201 52.3054 11.8942 51.7826C11.371 51.2554 10.9826 50.7201 10.729 50.1769C10.4754 49.6336 10.3411 49.0883 10.326 48.5408C10.3135 47.9889 10.4033 47.443 10.5955 46.9031C10.735 46.5137 10.8409 46.1709 10.9132 45.8748C10.9809 45.576 10.986 45.3218 10.9284 45.1123C10.8734 44.8983 10.7294 44.7223 10.4963 44.5845ZM13.2097 48.1767C13.4907 47.7015 13.8242 47.3269 14.2101 47.0528C14.596 46.7788 15.0138 46.5993 15.4634 46.5142C15.9131 46.4292 16.3794 46.4387 16.8624 46.5428C17.3436 46.6398 17.8195 46.8274 18.2903 47.1058L18.4382 47.1933C18.9448 47.4928 19.3718 47.8452 19.7192 48.2503C20.0647 48.6482 20.3154 49.0839 20.4712 49.5572C20.6251 50.0234 20.6725 50.5112 20.6132 51.0207C20.5566 51.5258 20.3772 52.0338 20.0749 52.5449C19.7727 53.056 19.4127 53.4603 18.9947 53.7577C18.5795 54.0507 18.1292 54.2443 17.6439 54.3385C17.154 54.43 16.6502 54.4225 16.1323 54.316C15.6126 54.2023 15.0995 53.9957 14.5929 53.6961L14.445 53.6086C14.3329 53.5423 14.235 53.4572 14.1512 53.3532C14.0675 53.2493 13.9868 53.135 13.9092 53.0104C13.8342 52.8814 13.7486 52.7551 13.6522 52.6316C13.3468 52.2271 13.1063 51.7793 12.9308 51.2883C12.7579 50.7928 12.6854 50.2809 12.7133 49.7529C12.7394 49.2176 12.9048 48.6923 13.2097 48.1767ZM14.082 49.0192C13.8116 49.4765 13.6942 49.9154 13.73 50.3359C13.7684 50.7519 13.92 51.135 14.1848 51.4853C14.4452 51.8329 14.7771 52.1259 15.1806 52.3645L15.3286 52.452C15.6693 52.6535 16.0159 52.804 16.3685 52.9036C16.7211 53.0032 17.0639 53.0425 17.3969 53.0216C17.7281 52.9936 18.0352 52.8938 18.3182 52.7223C18.6038 52.5463 18.8486 52.2857 19.0528 51.9405C19.2569 51.5953 19.366 51.2574 19.3799 50.9268C19.3939 50.5962 19.332 50.2813 19.1943 49.982C19.0522 49.6801 18.8525 49.3987 18.5954 49.1377C18.3382 48.8768 18.0393 48.6456 17.6986 48.4441L17.5506 48.3566C17.2458 48.1763 16.9328 48.0457 16.6116 47.9647C16.2904 47.8836 15.9754 47.8638 15.6666 47.9051C15.3604 47.9418 15.0713 48.0522 14.7991 48.2362C14.5251 48.413 14.2861 48.674 14.082 49.0192Z" fill="white"/>
<path d="M21.3184 43.5577L20.3134 44.7438L19.6339 44.1681L20.5632 43.0713C20.8224 42.7654 20.9901 42.491 21.0661 42.2482C21.1381 42.002 21.1366 41.7823 21.0615 41.5889C20.9864 41.3956 20.8554 41.2198 20.6687 41.0616C20.5018 40.9201 20.3078 40.8309 20.0867 40.7937C19.865 40.7492 19.6293 40.7816 19.3796 40.891C19.126 40.9969 18.8662 41.2068 18.6002 41.5208C18.3848 41.7751 18.2352 42.0443 18.1515 42.3284C18.0638 42.6091 18.0453 42.8767 18.0959 43.1312C18.1459 43.3783 18.2663 43.5827 18.457 43.7443L17.5227 44.847C17.1293 44.5137 16.8858 44.1162 16.7922 43.6547C16.698 43.1857 16.7317 42.6989 16.8932 42.194C17.0581 41.6852 17.3291 41.2083 17.7062 40.7632C18.0226 40.3897 18.3472 40.0912 18.6798 39.8679C19.0118 39.6372 19.3448 39.4859 19.6788 39.4139C20.0089 39.3386 20.3366 39.3466 20.662 39.438C20.9867 39.522 21.3021 39.6936 21.608 39.9529C21.8266 40.1381 21.9895 40.3648 22.0966 40.6331C22.2038 40.9014 22.2504 41.1969 22.2364 41.5195C22.2185 41.8388 22.1334 42.1729 21.9811 42.5218C21.8323 42.8667 21.6114 43.212 21.3184 43.5577ZM19.8962 44.3903L20.9012 43.2042C21.2278 42.8187 21.5534 42.5109 21.8781 42.2808C22.1988 42.0474 22.5148 41.8919 22.8262 41.8145C23.1376 41.737 23.4407 41.7378 23.7355 41.8169C24.0296 41.8887 24.3118 42.039 24.582 42.268C24.8841 42.5239 25.1041 42.8161 25.2421 43.1447C25.3795 43.4659 25.4374 43.8085 25.4157 44.1724C25.3941 44.5364 25.2956 44.9103 25.1204 45.2944C24.9486 45.6744 24.7045 46.0512 24.388 46.4247C24.0344 46.842 23.6195 47.1867 23.1431 47.4589C22.6667 47.7311 22.1718 47.8681 21.6583 47.8698C21.1408 47.8683 20.6496 47.6705 20.1846 47.2766L21.119 46.1739C21.3137 46.3389 21.5506 46.4338 21.8299 46.4588C22.1091 46.4838 22.3949 46.4324 22.6874 46.3048C22.9832 46.1731 23.254 45.9623 23.4998 45.6722C23.7625 45.3623 23.9336 45.0636 24.0133 44.7761C24.093 44.4887 24.0972 44.226 24.0258 43.988C23.9577 43.746 23.8303 43.5459 23.6436 43.3877C23.4012 43.1823 23.1661 43.065 22.9382 43.0358C22.7104 43.0066 22.4785 43.0627 22.2426 43.2041C22.0061 43.3382 21.7582 43.5583 21.499 43.8643L20.5697 44.961L19.8962 44.3903Z" fill="white"/>
<path d="M24.7215 39.521L24.6074 39.3821C24.2208 38.9111 23.9306 38.4182 23.737 37.9032C23.5401 37.3843 23.4481 36.8701 23.4612 36.3607C23.471 35.8473 23.5913 35.3577 23.8221 34.8919C24.0496 34.4221 24.3908 34.0005 24.8457 33.627C25.3046 33.2503 25.7866 32.996 26.2917 32.8644C26.7976 32.7254 27.3032 32.7011 27.8087 32.7915C28.3149 32.8745 28.8034 33.0632 29.274 33.3574C29.7414 33.6476 30.1684 34.0281 30.5551 34.4991L30.6691 34.638C31.0558 35.109 31.3459 35.6019 31.5395 36.1168C31.7332 36.6317 31.8231 37.1476 31.8093 37.6643C31.7962 38.1737 31.6759 38.6633 31.4484 39.1331C31.2216 39.5956 30.8788 40.0152 30.4199 40.392C29.961 40.7687 29.4806 41.025 28.9788 41.1607C28.4737 41.2923 27.968 41.3166 27.4618 41.2336C26.9563 41.1432 26.4699 40.9529 26.0025 40.6627C25.5351 40.3725 25.1081 39.9919 24.7215 39.521ZM25.7245 38.465L25.8385 38.6039C26.1062 38.9299 26.3973 39.2065 26.7117 39.4335C27.0229 39.6565 27.3458 39.8159 27.6805 39.9118C28.0193 40.0043 28.3583 40.0191 28.6975 39.9562C29.0334 39.8893 29.3564 39.7286 29.6664 39.4742C29.9723 39.223 30.1888 38.9408 30.3158 38.6277C30.4435 38.3072 30.4929 37.9734 30.4641 37.6264C30.4353 37.2794 30.3419 36.9316 30.1837 36.583C30.0263 36.2271 29.8137 35.8861 29.546 35.5601L29.432 35.4212C29.1676 35.0991 28.8778 34.8283 28.5627 34.6086C28.2482 34.3815 27.9216 34.2217 27.5829 34.1292C27.2448 34.0294 26.9062 34.0109 26.5669 34.0738C26.2317 34.1333 25.9091 34.2903 25.5992 34.5448C25.2932 34.796 25.0764 35.0818 24.9487 35.4023C24.825 35.7195 24.7772 36.0553 24.8053 36.4096C24.8341 36.7566 24.9292 37.1064 25.0907 37.459C25.2488 37.8076 25.4601 38.1429 25.7245 38.465Z" fill="white"/>
<path d="M32.667 30.1984L37.5787 38.9986L36.3099 39.7068L30.6062 29.4876L31.7659 28.8404L32.667 30.1984ZM38.8738 29.633L38.9538 29.7763C39.2533 30.3129 39.4676 30.8464 39.5966 31.3769C39.7231 31.9027 39.7575 32.4025 39.6997 32.8761C39.6465 33.3472 39.4946 33.7749 39.2439 34.1594C38.9933 34.5438 38.6383 34.8643 38.1789 35.1206C37.7105 35.3821 37.2535 35.5358 36.8079 35.5817C36.3623 35.6275 35.9319 35.5725 35.5168 35.4165C35.1017 35.2605 34.7036 35.0174 34.3225 34.6873C33.946 34.3547 33.5857 33.9444 33.2418 33.4564L32.8154 32.6923C32.5653 32.1161 32.3948 31.5701 32.3037 31.0543C32.2127 30.5385 32.2049 30.0597 32.2804 29.6179C32.3579 29.169 32.5297 28.766 32.7956 28.4088C33.0589 28.0471 33.4225 27.7368 33.8864 27.4779C34.3503 27.219 34.8127 27.0802 35.2735 27.0616C35.7318 27.0385 36.1763 27.1243 36.6072 27.3193C37.0381 27.5142 37.4444 27.8093 37.8261 28.2047C38.2098 28.593 38.5591 29.0691 38.8738 29.633ZM37.6849 30.4845L37.605 30.3412C37.3993 29.9728 37.1678 29.6488 36.9102 29.369C36.6502 29.0847 36.3697 28.8655 36.0689 28.7112C35.7701 28.5499 35.4563 28.4686 35.1275 28.4672C34.7962 28.4613 34.4577 28.5548 34.112 28.7477C33.7937 28.9254 33.5467 29.1348 33.3711 29.376C33.2001 29.6146 33.0848 29.8728 33.0251 30.1506C32.9629 30.4239 32.9455 30.708 32.9729 31.0029C33.0023 31.2907 33.0618 31.5736 33.1514 31.8517L34.1375 33.6185C34.4062 33.8861 34.701 34.1152 35.0221 34.3058C35.3407 34.4918 35.6847 34.5951 36.054 34.6156C36.4208 34.6316 36.8111 34.5241 37.225 34.2931C37.5661 34.1027 37.8201 33.8685 37.987 33.5905C38.1559 33.3053 38.2501 32.9933 38.2697 32.6543C38.2938 32.3128 38.2544 31.959 38.1515 31.5929C38.046 31.2223 37.8905 30.8528 37.6849 30.4845Z" fill="white"/>
<path d="M46.9871 28.8179L49.3437 21.9158L50.757 21.5776L52.7245 29.7985L51.3112 30.1367L49.8765 24.142L47.5199 31.0441L46.1219 31.3787L44.1543 23.1578L45.5524 22.8232L46.9871 28.8179Z" fill="white"/>
<path d="M59.734 20.6756L59.8232 21.8676L55.9278 22.1588L56.4689 29.3965L55.0276 29.5042L54.3974 21.0746L59.734 20.6756Z" fill="white"/>
<path d="M63.0499 22.3959L62.2732 32.444L60.8244 32.332L61.7264 20.6637L63.0506 20.7661L63.0499 22.3959ZM68.5332 25.3585L68.5206 25.5221C68.4732 26.1349 68.3566 26.6979 68.1706 27.2111C67.9851 27.7191 67.7372 28.1545 67.4271 28.5171C67.1222 28.8801 66.759 29.1524 66.3375 29.3339C65.916 29.5155 65.443 29.5861 64.9185 29.5455C64.3837 29.5042 63.9179 29.3794 63.5213 29.1711C63.1248 28.9628 62.7967 28.6789 62.5372 28.3193C62.2777 27.9597 62.0805 27.537 61.9457 27.0512C61.816 26.5658 61.7429 26.0247 61.7264 25.4279L61.7938 24.5555C61.9043 23.9372 62.0643 23.388 62.2738 22.9079C62.4833 22.4278 62.7417 22.0246 63.049 21.6984C63.3619 21.3674 63.7279 21.1266 64.147 20.9762C64.5665 20.8206 65.0411 20.7632 65.5707 20.8042C66.1004 20.8451 66.5623 20.9853 66.9565 21.2247C67.3511 21.459 67.6739 21.7764 67.925 22.1772C68.1762 22.578 68.3513 23.0486 68.4506 23.5891C68.5555 24.1248 68.583 24.7146 68.5332 25.3585ZM67.0718 25.4101L67.0844 25.2465C67.1169 24.8259 67.1033 24.4279 67.0435 24.0523C66.9841 23.6716 66.8718 23.3338 66.7066 23.039C66.5469 22.7393 66.3305 22.498 66.0573 22.3149C65.7846 22.1267 65.4508 22.0173 65.0562 21.9868C64.6927 21.9587 64.3711 21.9965 64.0914 22.1003C63.817 22.2044 63.578 22.3557 63.3746 22.5542C63.1716 22.7474 63 22.9745 62.8597 23.2353C62.725 23.4913 62.618 23.7599 62.5388 24.0411L62.3829 26.0585C62.4586 26.43 62.5775 26.784 62.7396 27.1204C62.902 27.4516 63.1314 27.7279 63.4277 27.9493C63.7244 28.1655 64.1091 28.2919 64.5816 28.3284C64.9711 28.3585 65.3123 28.3039 65.6051 28.1646C65.9036 28.0206 66.1547 27.8127 66.3585 27.5412C66.5676 27.27 66.7305 26.9535 66.8472 26.5916C66.9644 26.2246 67.0393 25.8307 67.0718 25.4101Z" fill="white"/>
<path d="M71.8678 24.6905L74.3044 25.4043C74.9592 25.5961 75.4779 25.8728 75.8604 26.2345C76.2443 26.5912 76.4927 27.0032 76.6055 27.4704C76.7247 27.9341 76.7104 28.4183 76.5625 28.9232C76.4527 29.298 76.2845 29.6314 76.0579 29.9232C75.8328 30.21 75.5544 30.4378 75.2228 30.6066C74.8961 30.7768 74.5223 30.8763 74.1015 30.905C73.6871 30.9301 73.235 30.871 72.7451 30.7275L69.2963 29.7172L71.6726 21.605L73.0596 22.0113L71.0171 28.9839L73.0789 29.5879C73.4788 29.705 73.8199 29.7262 74.1023 29.6515C74.3847 29.5769 74.612 29.44 74.7844 29.2408C74.9567 29.0416 75.0794 28.8171 75.1526 28.5671C75.2244 28.3222 75.2422 28.0669 75.206 27.8013C75.1699 27.5356 75.0545 27.2902 74.86 27.0649C74.6669 26.8347 74.3705 26.661 73.9706 26.5439L71.5339 25.8301L71.8678 24.6905ZM81.0369 24.3481L78.6606 32.4603L77.2736 32.054L79.6499 23.9418L81.0369 24.3481Z" fill="white"/>
</svg>
